<svg width="26" height="26" viewBox="0 0 26 26" fill="none" xmlns="http://www.w3.org/2000/svg">
<path d="M19.5 9.75C21.2949 9.75 22.75 8.29493 22.75 6.5C22.75 4.70507 21.2949 3.25 19.5 3.25C17.7051 3.25 16.25 4.70507 16.25 6.5C16.25 8.29493 17.7051 9.75 19.5 9.75Z" fill="#667085"/>
<path d="M14.0833 6.50004C14.0833 5.72871 14.249 4.99746 14.5404 4.33337H6.49992C5.305 4.33337 4.33325 5.30512 4.33325 6.50004V19.5C4.33325 20.695 5.305 21.6667 6.49992 21.6667H19.4999C20.6948 21.6667 21.6666 20.695 21.6666 19.5V11.4595C20.9836 11.7595 20.2459 11.9151 19.4999 11.9167C18.0633 11.9167 16.6856 11.346 15.6698 10.3302C14.6539 9.31438 14.0833 7.93663 14.0833 6.50004Z" fill="#667085"/>
</svg>
