<svg width="26" height="26" viewBox="0 0 26 26" fill="none" xmlns="http://www.w3.org/2000/svg">
<path d="M13.0001 5.41663C12.1381 5.41663 11.3115 5.75904 10.702 6.36853C10.0925 6.97802 9.75008 7.80467 9.75008 8.66663C9.75008 9.52858 10.0925 10.3552 10.702 10.9647C11.3115 11.5742 12.1381 11.9166 13.0001 11.9166C13.862 11.9166 14.6887 11.5742 15.2982 10.9647C15.9077 10.3552 16.2501 9.52858 16.2501 8.66663C16.2501 7.80467 15.9077 6.97802 15.2982 6.36853C14.6887 5.75904 13.862 5.41663 13.0001 5.41663ZM14.0834 13H11.9167C8.92675 13 6.50008 15.4266 6.50008 18.4166V18.9583C6.50008 19.8575 7.22591 20.5833 8.12508 20.5833H17.8751C18.7742 20.5833 19.5001 19.8575 19.5001 18.9583V18.4166C19.5001 15.4266 17.0734 13 14.0834 13ZM7.04175 11.9166C7.55091 11.9166 8.01675 11.7866 8.41758 11.5591C7.96323 10.8357 7.68532 10.0156 7.60628 9.16504C7.52724 8.31445 7.64929 7.45719 7.96258 6.66246C7.68091 6.56496 7.36675 6.49996 7.04175 6.49996C5.48175 6.49996 4.33341 7.64829 4.33341 9.20829C4.33341 10.7683 5.48175 11.9166 7.04175 11.9166ZM6.61925 13H5.95841C3.86758 13 2.16675 14.7008 2.16675 16.7916V17.875C2.16675 18.1783 2.40508 18.4166 2.70841 18.4166H4.33341C4.33341 16.2933 5.21091 14.3758 6.61925 13ZM18.9584 11.9166C20.5184 11.9166 21.6667 10.7683 21.6667 9.20829C21.6667 7.64829 20.5184 6.49996 18.9584 6.49996C18.6226 6.49996 18.3192 6.56496 18.0376 6.66246C18.3509 7.45719 18.4729 8.31445 18.3939 9.16504C18.3148 10.0156 18.0369 10.8357 17.5826 11.5591C17.9834 11.7866 18.4384 11.9166 18.9584 11.9166ZM20.0417 13H19.3809C20.1048 13.7041 20.68 14.5463 21.0727 15.4767C21.4653 16.4071 21.6673 17.4068 21.6667 18.4166H23.2917C23.5951 18.4166 23.8334 18.1783 23.8334 17.875V16.7916C23.8334 14.7008 22.1326 13 20.0417 13Z" fill="#667085"/>
</svg>
